<svg xmlns="http://www.w3.org/2000/svg" viewBox="0 0 192 192">
  <rect width="192" height="192" rx="32" fill="#FDF3E7"/>
  <g transform="translate(96,92)">
    <path d="M-36,-2 C-36,-26 36,-26 36,-2 L36,32 C36,40 -36,40 -36,32 Z" fill="#E8895F"/>
    <path d="M-40,-4 L40,-4 L40,0 C40,3 -40,3 -40,0 Z" fill="#D47850"/>
    <path d="M-4,-30 C-4,-30 0,-42 4,-48 C8,-54 8,-60 8,-60" stroke="#FFFFFF" stroke-width="4" fill="none" stroke-linecap="round"/>
    <path d="M12,-30 C12,-30 16,-42 20,-48 C24,-54 24,-60 24,-60" stroke="#FFFFFF" stroke-width="4" fill="none" stroke-linecap="round"/>
  </g>
</svg>
